<?xml version="1.0" encoding="utf-8"?>
<!-- Generator: Adobe Illustrator 15.0.2, SVG Export Plug-In  -->
<!DOCTYPE svg PUBLIC "-//W3C//DTD SVG 1.1//EN" "http://www.w3.org/Graphics/SVG/1.1/DTD/svg11.dtd" [
	<!ENTITY ns_flows "http://ns.adobe.com/Flows/1.0/">
]>
<svg version="1.1"
	 xmlns="http://www.w3.org/2000/svg" xmlns:xlink="http://www.w3.org/1999/xlink" xmlns:a="http://ns.adobe.com/AdobeSVGViewerExtensions/3.0/"
	 x="0px" y="0px" width="500px" height="200px" viewBox="0 0 500 200" enable-background="new 0 0 500 200" xml:space="preserve">
<defs>
</defs>
<g>
	<path fill="#808080" d="M490,10v180H10V10H490 M500,0h-10H10H0v10v180v10h10h480h10v-10V10V0L500,0z"/>
</g>
<path fill="#808080" d="M155.922,48.319c-0.08-5.6-0.16-7.44-11.041-7.44c-8,0-12.64,0-12.64,5.36c0,2.8,1.28,3.84,5.68,4.24
	l18.88,1.84c17.041,1.68,17.041,14.96,17.041,18.48c0,16.721-9.521,20.241-27.921,20.241c-16.8,0-21.28-2.16-24.4-5.28
	c-4.56-4.4-4.56-9.68-4.56-17.68h15.76c0.08,4.4,0.08,4.96,0.4,5.76c1.04,2.4,4.4,2.8,12.081,2.8c9.36,0,13.12-0.32,13.12-5.76
	c0-1.28-0.16-4.56-4.48-4.96l-22.88-2.32c-7.36-0.72-13.92-4.56-13.92-17.36c0-18.24,12.24-19.521,27.28-19.521
	c12.48,0,20.641,0.96,24.961,7.68c1.92,3.04,2.16,6.561,2.24,13.92H155.922z"/>
<path fill="#808080" d="M196.641,27.359v19.92c1.44-1.92,3.6-4.64,14.4-4.64c14,0,17.841,4.96,17.841,16.561V90.4h-14.721V61.44
	c0-5.041-3.92-5.28-8.56-5.28c-6.4,0-8.96,1.12-8.96,6.64V90.4H181.92V27.359H196.641z"/>
<path fill="#808080" d="M284.241,65.44c0,20.32-2.88,25.601-22.4,25.601c-18.001,0-25.681-0.72-25.681-22.801
	S240,42.639,260.24,42.639C276.961,42.639,284.241,44.079,284.241,65.44z M250.72,64.48c0,12.64,0.4,12.96,9.041,12.96
	c8.24,0,9.92-0.4,9.92-8.16c0-12.88-0.4-13.04-9.44-13.04C252.32,56.24,250.72,56.8,250.72,64.48z"/>
<path fill="#808080" d="M305.76,43.279l0.48,4.56c1.76-2.96,4.08-5.2,14.16-5.2c2.64,0,4.48,0.08,5.44,0.16v14.24
	c-1.44-0.16-3.28-0.24-5.44-0.24c-12,0-14.08,2.8-14.08,6.64V90.4H291.6V43.279H305.76z"/>
<path fill="#808080" d="M337.84,31.919h14.721v11.36H366v13.68h-13.439V73.04c0,3.84,0.72,4.64,13.439,4.08V90.8
	c-2.96,0.4-5.76,0.4-6.96,0.4c-16.64,0-21.2-2.72-21.2-13.2V56.959h-8.641v-13.68h8.641V31.919z"/>
<path fill="#808080" d="M385.68,70.88c-0.08,5.68,0.561,6.96,10.641,6.96c7.04,0,8.08-1.04,7.92-4.32h14.721
	c-0.08,12.8-5.601,17.521-22.48,17.521c-22.161,0-25.521-5.52-25.521-23.201c0-18.4,1.2-25.201,23.92-25.201
	c11.041,0,17.681,0.72,21.601,6.8c2.24,3.52,2.561,6.48,2.561,21.44H385.68z M404.32,60.96c0-4.081-0.56-4.96-9.12-4.96
	s-9.681,0.4-9.521,4.96H404.32z"/>
<path fill="#808080" d="M440.24,43.279l0.159,4.64c2.641-3.68,6.001-5.28,14.801-5.28c7.28,0,18.16,0.4,18.16,14.96V90.4h-14.72
	V60.8c0-3.28-2.561-4.48-8.561-4.48c-4.48,0-9.04,0.56-9.04,5.12V90.4h-14.721V43.279H440.24z"/>
<path fill="#808080" d="M264.842,111.359v42.48c0,15.12-6.8,21.2-29.6,21.2c-22.241,0-30.001-5.279-30.001-21.2v-42.48h16v41.2
	c0,6.16,1.04,7.841,13.6,7.841c12.72,0,14-1.521,14-7.921v-41.12H264.842z"/>
<path fill="#808080" d="M314.122,111.359c8.4,0,17.28,2.399,17.28,17.84c0,5.28-0.4,13.12-8.721,16.24
	c5.2,1.28,7.681,4.881,7.681,10.801v5.6c0,6.32,1.12,10.4,1.68,12.561h-16.561c-0.64-2.8-0.96-6.8-0.96-9.601v-5.84
	c0-6.16-3.359-6.24-6.96-6.24h-16.48V174.4h-16v-63.041H314.122z M291.081,125.999v12.641h18.961c3.52,0,5.6-1.2,5.6-7.04
	c0-4.24-2-5.601-5.6-5.601H291.081z"/>
<path fill="#808080" d="M356.12,111.359v48.4h32.081V174.4H340.12v-63.041H356.12z"/>
<polyline fill="none" stroke="#808080" stroke-width="10" stroke-miterlimit="10" points="30,100 40,140 100,50 "/>
</svg>
